<svg width="512" height="512" viewBox="0 0 512 512" xmlns="http://www.w3.org/2000/svg">
  <defs>
    <linearGradient id="grad1" x1="0%" y1="0%" x2="100%" y2="100%">
      <stop offset="0%" style="stop-color:#2563eb;stop-opacity:1" />
      <stop offset="100%" style="stop-color:#1d4ed8;stop-opacity:1" />
    </linearGradient>
  </defs>
  
  <!-- Фон с закругленными углами -->
  <rect width="512" height="512" rx="51" ry="51" fill="url(#grad1)"/>
  
  <!-- Блокнот (журнал) -->
  <rect x="102" y="128" width="307" height="358" rx="20" ry="20" fill="white"/>
  
  <!-- Спираль сверху -->
  <g stroke="#2563eb" stroke-width="8" fill="none">
    <circle cx="154" cy="96" r="10"/>
    <circle cx="205" cy="96" r="10"/>
    <circle cx="256" cy="96" r="10"/>
    <circle cx="307" cy="96" r="10"/>
    <circle cx="358" cy="96" r="10"/>
  </g>
  
  <!-- Линии на странице -->
  <g stroke="#e5e7eb" stroke-width="4">
    <line x1="133" y1="200" x2="378" y2="200"/>
    <line x1="133" y1="240" x2="378" y2="240"/>
    <line x1="133" y1="280" x2="378" y2="280"/>
    <line x1="133" y1="320" x2="378" y2="320"/>
    <line x1="133" y1="360" x2="378" y2="360"/>
    <line x1="133" y1="400" x2="378" y2="400"/>
    <line x1="133" y1="440" x2="378" y2="440"/>
  </g>
  
  <!-- Символ рубля -->
  <text x="350" y="185" font-family="Arial, sans-serif" font-size="64" font-weight="bold" fill="#fbbf24">₽</text>
  
  <!-- Декоративные элементы -->
  <circle cx="440" cy="440" r="20" fill="rgba(255,255,255,0.3)"/>
  <circle cx="72" cy="72" r="15" fill="rgba(255,255,255,0.2)"/>
  <circle cx="450" cy="80" r="12" fill="rgba(255,255,255,0.15)"/>
  <circle cx="60" cy="450" r="18" fill="rgba(255,255,255,0.25)"/>
</svg> 